<svg xmlns="http://www.w3.org/2000/svg" xmlns:xlink="http://www.w3.org/1999/xlink" width="1000" zoomAndPan="magnify" viewBox="0 0 750 374.999991" height="500" preserveAspectRatio="xMidYMid meet" version="1.2"><defs><clipPath id="99a47f6686"><path d="M 251.214844 49.683594 L 498.714844 49.683594 L 498.714844 325.683594 L 251.214844 325.683594 Z M 251.214844 49.683594 "/></clipPath><clipPath id="506fd719ab"><path d="M 374 49.683594 L 498.714844 49.683594 L 498.714844 325.683594 L 374 325.683594 Z M 374 49.683594 "/></clipPath></defs><g id="2a53cd86d1"><g clip-rule="nonzero" clip-path="url(#99a47f6686)"><path style=" stroke:none;fill-rule:nonzero;fill:#38b6ff;fill-opacity:1;" d="M 498.652344 97.914062 L 498.652344 201.597656 C 494.992188 294.367188 374.941406 325.308594 374.941406 325.308594 C 374.941406 325.308594 254.886719 294.367188 251.285156 201.597656 L 251.285156 97.914062 L 374.941406 49.726562 Z M 498.652344 97.914062 "/></g><g clip-rule="nonzero" clip-path="url(#506fd719ab)"><path style=" stroke:none;fill-rule:nonzero;fill:#236ac8;fill-opacity:1;" d="M 498.652344 97.914062 L 498.652344 201.597656 C 494.992188 294.367188 374.941406 325.308594 374.941406 325.308594 L 374.941406 49.726562 Z M 498.652344 97.914062 "/></g><path style=" stroke:none;fill-rule:nonzero;fill:#236ac8;fill-opacity:1;" d="M 466.15625 121.453125 L 466.15625 197.898438 C 463.460938 266.292969 374.945312 289.109375 374.945312 289.109375 C 374.945312 289.109375 286.433594 266.292969 283.777344 197.898438 L 283.777344 121.453125 L 374.945312 85.929688 Z M 466.15625 121.453125 "/><path style=" stroke:none;fill-rule:nonzero;fill:#38b6ff;fill-opacity:1;" d="M 466.15625 121.453125 L 466.15625 197.898438 C 463.460938 266.292969 374.945312 289.109375 374.945312 289.109375 L 374.945312 85.929688 Z M 466.15625 121.453125 "/></g></svg>